<?xml version="1.0" encoding="utf-8"?>
<!-- Generator: Adobe Illustrator 22.1.0, SVG Export Plug-In . SVG Version: 6.00 Build 0)  -->
<svg version="1.1" id="Layer_1" xmlns="http://www.w3.org/2000/svg" xmlns:xlink="http://www.w3.org/1999/xlink" x="0px" y="0px"
	 viewBox="0 0 283.5 283.5" style="enable-background:new 0 0 283.5 283.5;" xml:space="preserve">
<style type="text/css">
	.st0{fill:none;}
</style>
<g>
	<path d="M143.5,106L143.5,106c-0.1-7.1-0.1-14.1-0.1-21.2h-19.7v177.3h19.8"/>
</g>
<g>
	<path class="st0" d="M113.8,167.6h35.3c6.4,0,10.9-0.3,13.5-0.9c4.6-1,8.4-2.6,11.4-4.9c3.1-2.3,5.6-5.6,7.5-10c2-4.4,3-9.4,3-15.1
		c0-6.7-1.4-12.5-4.3-17.4c-2.9-4.9-6.8-8.4-11.9-10.4c-5.1-2-12.4-3-21.9-3l-17.2,0l0-21.2h15c8.8,0,15.1-0.7,18.9-2.1
		c5-1.8,8.8-4.8,11.4-8.9c2.6-4.2,3.8-5.4,3.8-11.7c0-6-1.2-11.2-3.6-15.7c-2.4-4.5-5.8-7.6-10.2-9.3c-4.4-1.7-12-2.5-22.7-2.5
		h-29.9V161h1.9V167.6z"/>
	<path d="M197.7,109.7c-4.9-7.7-11.8-13.1-20.9-16.3c7-4.2,12.2-9.6,15.7-16.4c3.5-6.8,4.6-10,5.2-17.7c0.6-8.1-2-16.1-5.9-23.7
		c-3.9-7.5-9.3-13.1-16.2-16.8c-6.9-3.6-16.1-5.4-27.5-5.4H92.1V161h0c10.9,0,19.8-8.9,19.8-19.8V34.6h29.9
		c10.7,0,18.3,0.8,22.7,2.5c4.4,1.7,7.8,4.8,10.2,9.3c2.4,4.5,3.6,9.8,3.6,15.7c0,6.3-1.3,7.5-3.8,11.7c-2.5,4.2-6.3,7.1-11.4,8.9
		c-3.8,1.4-10.1,2.1-18.9,2.1h-15l0,21.2l17.2,0c9.5,0,16.8,1,21.9,3c5.1,2,9,5.5,11.9,10.4c2.9,4.9,4.3,10.7,4.3,17.4
		c0,5.7-1,10.7-3,15.1c-2,4.4-4.5,7.7-7.5,10c-3.1,2.3-6.9,3.9-11.4,4.9c-2.6,0.6-7.1,0.9-13.5,0.9h-35.3h-1.9h0
		c-10.9,0-19.8,8.9-19.8,19.8v1.4h57c9.5,0,17.6-1,24.1-3c6.6-2,12-5,16.4-8.9c4.4-3.9,8-9.5,11-16.7c3-7.2,4.4-15,4.4-23.4
		C205,126.4,202.6,117.3,197.7,109.7z"/>
</g>
</svg>
